<svg width="100" height="100" viewBox="0 0 100 100" fill="none" xmlns="http://www.w3.org/2000/svg">
<path d="M85.4143 52.1428C85.3947 52.0553 85.3683 51.9708 85.3356 51.8891C84.779 50.0624 84.0775 48.2809 83.2308 46.572C82.8223 45.7474 81.8221 45.4104 80.9979 45.8186C80.1732 46.2271 79.836 47.2269 80.2447 48.0515C80.6952 48.9607 81.0983 49.8935 81.4588 50.8429H66.294C65.3738 50.8429 64.6277 51.589 64.6277 52.5092C64.6277 53.4294 65.3738 54.1755 66.294 54.1755H82.5194C83.1887 56.764 83.5355 59.4366 83.5355 62.1065V86.461H64.6412C63.721 86.461 62.9749 87.2071 62.9749 88.1273C62.9749 89.0475 63.721 89.7936 64.6412 89.7936H83.5355V93.3346C83.5355 95.1722 82.0404 96.6673 80.2028 96.6673H61.0399C59.2023 96.6673 57.7072 95.1722 57.7072 93.3346V62.9239H76.225C77.1453 62.9239 77.8914 62.1777 77.8914 61.2575C77.8914 60.3373 77.1453 59.5912 76.225 59.5912H57.8117C58.1877 54.8879 59.6093 50.3061 61.9868 46.2111L64.2313 42.3443C65.239 42.5678 64.6925 42.5114 75.4923 42.5114C79.3305 42.5114 82.453 39.3888 82.453 35.5506C82.453 32.4358 80.3615 29.7453 77.48 28.8815L76.0978 5.21629C75.9268 2.29123 73.5212 5.72205e-06 70.6211 5.72205e-06C67.7211 5.72205e-06 65.3153 2.29123 65.1445 5.21629L63.687 30.1754C63.6333 31.0942 64.3346 31.8824 65.2534 31.9361C66.1705 31.9898 66.9604 31.2885 67.0141 30.3697L68.4715 5.41062C68.5396 4.24543 69.4838 3.33269 70.6211 3.33269C71.7584 3.33269 72.7026 4.24543 72.7707 5.41062L74.2281 30.3697C74.2767 31.2033 74.9349 31.8722 75.7676 31.9342C77.6475 32.0748 79.1201 33.6631 79.1201 35.5504C79.1201 37.5509 77.4927 39.1785 75.4921 39.1785H65.7502C64.2759 39.1785 62.9591 38.298 62.3956 36.9354C62.044 36.0849 61.0692 35.6812 60.2192 36.0322C59.3687 36.3838 58.9644 37.3584 59.316 38.2089C59.7495 39.257 60.4181 40.1528 61.2425 40.8542L59.1042 44.5376C56.1683 49.595 54.5484 55.323 54.3899 61.1607C54.3789 61.3537 54.3743 69.423 54.3743 93.3344C54.3743 97.0098 57.3643 99.9998 61.0396 99.9998H80.2026C83.8779 99.9998 86.868 97.0098 86.868 93.3344V62.1065C86.868 58.742 86.3718 55.3728 85.4143 52.1428Z" fill="#0987BF"/>
<path d="M44.0933 51.8889C43.5368 50.0622 42.8352 48.2806 41.9885 46.5718C41.5801 45.7472 40.5801 45.4102 39.7556 45.8184C38.931 46.2269 38.5938 47.2267 39.0024 48.0513C39.453 48.9605 39.856 49.8933 40.2166 50.8427H25.0518C24.1316 50.8427 23.3855 51.5888 23.3855 52.509C23.3855 53.4292 24.1316 54.1753 25.0518 54.1753H41.2772C41.9465 56.7638 42.2933 59.4364 42.2933 62.1063V86.4608H23.399C22.4788 86.4608 21.7327 87.2069 21.7327 88.1271C21.7327 89.0473 22.4788 89.7934 23.399 89.7934H42.2933V93.3344C42.2933 95.172 40.7981 96.6671 38.9606 96.6671H19.7976C17.9601 96.6671 16.4649 95.172 16.4649 93.3344V62.9237H34.9828C35.903 62.9237 36.6492 62.1775 36.6492 61.2573C36.6492 60.3371 35.903 59.591 34.9828 59.591H16.5695C16.9455 54.8877 18.3671 50.3059 20.7445 46.2108L22.9891 42.3441C23.9968 42.5676 23.4503 42.5111 34.25 42.5111C38.0882 42.5111 41.2108 39.3886 41.2108 35.5504C41.2108 32.4356 39.1193 29.7451 36.2378 28.8813L34.8557 5.21629C34.6847 2.29123 32.2792 5.72205e-06 29.3791 5.72205e-06C26.479 5.72205e-06 24.0733 2.29123 23.9025 5.21629L22.445 30.1754C22.3913 31.0942 23.0926 31.8824 24.0114 31.9361C24.93 31.9898 25.7186 31.2885 25.7721 30.3697L27.2295 5.41062C27.2976 4.24543 28.2418 3.33269 29.3791 3.33269C30.5164 3.33269 31.4606 4.24543 31.5287 5.41062L32.9861 30.3697C33.0346 31.2033 33.6929 31.8722 34.5256 31.9342C36.4055 32.0748 37.8781 33.6631 37.8781 35.5504C37.8781 37.5509 36.2507 39.1785 34.25 39.1785H24.5082C23.0339 39.1785 21.717 38.298 21.1536 36.9354C20.802 36.0849 19.8268 35.6812 18.9772 36.0322C18.1267 36.3838 17.7224 37.3584 18.074 38.2089C18.5075 39.257 19.1761 40.1528 20.0005 40.8542L17.8622 44.5376C14.9263 49.595 13.3064 55.323 13.1479 61.1607C13.146 61.1927 13.1431 61.2246 13.1431 61.2573C13.1431 61.5295 13.1322 57.823 13.1322 93.3344C13.1322 97.0098 16.1223 99.9998 19.7976 99.9998H38.9606C42.6359 99.9998 45.626 97.0098 45.626 93.3344V62.1065C45.626 58.742 45.1298 55.3728 44.1723 52.1428C44.1527 52.0553 44.1262 51.9706 44.0933 51.8889Z" fill="#0987BF"/>
</svg>
