<svg width="100" height="108" viewBox="0 0 100 108" fill="none" xmlns="http://www.w3.org/2000/svg">
<g filter="url(#filter0_d_55_1337)">
<path d="M88.6719 16.3115L72.3603 0H23.8281V53.1785C16.8365 53.7754 11.3281 59.6531 11.3281 66.7969C11.3281 70.8984 13.1461 74.5809 16.0156 77.0891V100H19.2354L25 94.2354L30.7646 100H33.9844V89.8438H88.6719V16.3115ZM73.0469 4.00098L84.6709 15.625H73.0469V4.00098ZM13.6719 66.7969C13.6719 60.5506 18.7537 55.4688 25 55.4688C31.2463 55.4688 36.3281 60.5506 36.3281 66.7969C36.3281 73.0432 31.2463 78.125 25 78.125C18.7537 78.125 13.6719 73.0432 13.6719 66.7969ZM25 90.9209L18.3594 97.5615V78.742C20.3271 79.8402 22.591 80.4689 25 80.4689C27.409 80.4689 29.6729 79.8402 31.6406 78.742V97.5615L25 90.9209ZM33.9844 87.5V77.0891C36.8539 74.5809 38.6719 70.8984 38.6719 66.7969C38.6719 59.6533 33.1635 53.7756 26.1719 53.1785V2.34375H70.7031V17.9688H86.3281V87.5H33.9844Z" fill="#0987BF"/>
<path d="M34.375 12.5H53.125V14.8438H34.375V12.5Z" fill="#0987BF"/>
<path d="M34.375 18.75H46.875V21.0938H34.375V18.75Z" fill="#0987BF"/>
<path d="M34.375 28.125H78.125V30.4688H34.375V28.125Z" fill="#0987BF"/>
<path d="M34.375 34.375H78.125V36.7188H34.375V34.375Z" fill="#0987BF"/>
<path d="M34.375 46.875H78.125V49.2188H34.375V46.875Z" fill="#0987BF"/>
<path d="M40.625 53.125H71.875V55.4688H40.625V53.125Z" fill="#0987BF"/>
<path d="M34.375 40.625H78.125V42.9688H34.375V40.625Z" fill="#0987BF"/>
<path d="M59.375 62.5H78.125V64.8438H59.375V62.5Z" fill="#0987BF"/>
<path d="M65.625 68.75H78.125V71.0938H65.625V68.75Z" fill="#0987BF"/>
<path d="M25 74.2188C29.0924 74.2188 32.4219 70.8893 32.4219 66.7969C32.4219 62.7045 29.0924 59.375 25 59.375C20.9076 59.375 17.5781 62.7045 17.5781 66.7969C17.5781 70.8893 20.9076 74.2188 25 74.2188ZM25 61.7188C27.8002 61.7188 30.0781 63.9967 30.0781 66.7969C30.0781 69.5971 27.8002 71.875 25 71.875C22.1998 71.875 19.9219 69.5971 19.9219 66.7969C19.9219 63.9967 22.1998 61.7188 25 61.7188Z" fill="#0987BF"/>
</g>
<defs>
<filter id="filter0_d_55_1337" x="-4" y="0" width="108" height="108" filterUnits="userSpaceOnUse" color-interpolation-filters="sRGB">
<feFlood flood-opacity="0" result="BackgroundImageFix"/>
<feColorMatrix in="SourceAlpha" type="matrix" values="0 0 0 0 0 0 0 0 0 0 0 0 0 0 0 0 0 0 127 0" result="hardAlpha"/>
<feOffset dy="4"/>
<feGaussianBlur stdDeviation="2"/>
<feComposite in2="hardAlpha" operator="out"/>
<feColorMatrix type="matrix" values="0 0 0 0 0 0 0 0 0 0 0 0 0 0 0 0 0 0 0.25 0"/>
<feBlend mode="normal" in2="BackgroundImageFix" result="effect1_dropShadow_55_1337"/>
<feBlend mode="normal" in="SourceGraphic" in2="effect1_dropShadow_55_1337" result="shape"/>
</filter>
</defs>
</svg>
