<svg width="23" height="40" viewBox="0 0 23 40" fill="none" xmlns="http://www.w3.org/2000/svg">
<path d="M14.0509 40H7.63271C6.56067 40 5.6886 39.1296 5.6886 38.0597V23.6115H1.9441C0.872064 23.6115 0 22.7408 0 21.6711V15.48C0 14.4101 0.872064 13.5397 1.9441 13.5397H5.6886V10.4395C5.6886 7.36542 6.65576 4.75006 8.4852 2.87659C10.3229 0.994568 12.8911 0 15.9121 0L20.8069 0.00793453C21.8771 0.00976563 22.7477 0.880127 22.7477 1.94824V7.69653C22.7477 8.76648 21.8759 9.63684 20.8042 9.63684L17.5086 9.63806C16.5035 9.63806 16.2476 9.83917 16.1928 9.90082C16.1026 10.0031 15.9953 10.2921 15.9953 11.0901V13.5394H20.5565C20.8999 13.5394 21.2326 13.624 21.5185 13.7833C22.1352 14.1272 22.5187 14.7775 22.5187 15.4803L22.5162 21.6714C22.5162 22.7408 21.6441 23.6111 20.5721 23.6111H15.9953V38.0597C15.9953 39.1296 15.1229 40 14.0509 40ZM8.03816 37.655H13.6454V22.5616C13.6454 21.8472 14.2279 21.2662 14.9434 21.2662H20.1666L20.1688 15.8847H14.9431C14.2276 15.8847 13.6454 15.3037 13.6454 14.5892V11.0901C13.6454 10.174 13.7387 9.13208 14.4316 8.349C15.2688 7.40234 16.5882 7.29309 17.5079 7.29309L20.3981 7.29187V2.3523L15.9103 2.34497C11.0552 2.34497 8.03816 5.44678 8.03816 10.4395V14.5892C8.03816 15.3033 7.45597 15.8847 6.74046 15.8847H2.34956V21.2662H6.74046C7.45597 21.2662 8.03816 21.8472 8.03816 22.5616V37.655ZM20.8023 2.35291H20.8027H20.8023Z" fill="#008DCC"/>
</svg>
