<svg width="40" height="40" viewBox="0 0 40 40" fill="none" xmlns="http://www.w3.org/2000/svg">
<g clip-path="url(#clip0_138_1030)">
<path d="M29.1723 0H10.8276C4.85717 0 0 4.85717 0 10.8276V29.1726C0 35.1428 4.85717 39.9999 10.8276 39.9999H29.1726C35.1428 39.9999 39.9999 35.1428 39.9999 29.1726V10.8276C39.9999 4.85717 35.1428 0 29.1723 0V0ZM37.655 29.1726C37.655 33.8497 33.8497 37.655 29.1723 37.655H10.8276C6.1502 37.655 2.34497 33.8497 2.34497 29.1726V10.8276C2.34497 6.1502 6.1502 2.34497 10.8276 2.34497H29.1726C33.8497 2.34497 37.655 6.1502 37.655 10.8276V29.1726Z" fill="#008DCC"/>
<path d="M20 9.06274C13.9691 9.06274 9.06281 13.969 9.06281 19.9999C9.06281 26.0308 13.9691 30.9371 20 30.9371C26.0309 30.9371 30.9372 26.0308 30.9372 19.9999C30.9372 13.969 26.0309 9.06274 20 9.06274ZM20 28.5921C15.2624 28.5921 11.4078 24.7378 11.4078 19.9999C11.4078 15.2624 15.2624 11.4077 20 11.4077C24.7378 11.4077 28.5922 15.2624 28.5922 19.9999C28.5922 24.7378 24.7378 28.5921 20 28.5921Z" fill="#008DCC"/>
<path d="M31.1987 5.17847C29.4164 5.17847 27.9669 6.62835 27.9669 8.41027C27.9669 10.1925 29.4164 11.6424 31.1987 11.6424C32.9809 11.6424 34.4308 10.1925 34.4308 8.41027C34.4308 6.62805 32.9809 5.17847 31.1987 5.17847ZM31.1987 9.29711C30.7098 9.29711 30.3118 8.89916 30.3118 8.41027C30.3118 7.92108 30.7098 7.52343 31.1987 7.52343C31.6879 7.52343 32.0858 7.92108 32.0858 8.41027C32.0858 8.89916 31.6879 9.29711 31.1987 9.29711Z" fill="#008DCC"/>
</g>
<defs>
<clipPath id="clip0_138_1030">
<rect width="40" height="40" fill="white"/>
</clipPath>
</defs>
</svg>
