<svg width="40" height="40" viewBox="0 0 40 40" fill="none" xmlns="http://www.w3.org/2000/svg">
<g clip-path="url(#clip0_138_1037)">
<path d="M0.610352 39.8387H10.9675V12.6033H0.610352V39.8387ZM2.9541 14.947H8.62371V37.4948H2.9541V14.947Z" fill="#008DCC"/>
<path d="M5.78898 0.161377C2.59687 0.161377 0 2.75833 0 5.95036C0 9.14239 2.59687 11.7394 5.78898 11.7394C8.98109 11.7394 11.578 9.14247 11.578 5.95036C11.578 2.75825 8.98102 0.161377 5.78898 0.161377ZM2.34375 5.95036C2.34375 4.05067 3.88922 2.50513 5.78898 2.50513C7.68875 2.50513 9.2343 4.0506 9.2343 5.95036C9.2343 7.85013 7.68875 9.39567 5.78898 9.39567C3.88922 9.39567 2.34375 7.85005 2.34375 5.95036Z" fill="#008DCC"/>
<path d="M39.9749 21.1555C39.6063 15.8544 35.1844 11.7693 29.7023 11.7693C27.2502 11.7693 24.9354 12.6218 23.1116 14.1344V12.6032H13.1874V39.8386H23.5446V24.943C23.5446 23.2642 24.9103 21.8984 26.5891 21.8984C28.2678 21.8984 29.6335 23.2642 29.6335 24.9437L29.6435 39.8387H39.9999V21.1807L39.9749 21.1555ZM21.2008 37.495H15.5311V14.947H20.7678V18.2944L22.6432 18.3052L22.9916 17.7643C24.4642 15.478 26.9729 14.1131 29.7023 14.1131C34.0645 14.1131 37.5572 17.4414 37.6539 21.6901L37.6562 37.495H31.9857L31.9773 24.943C31.9773 21.9719 29.5601 19.5547 26.5891 19.5547C23.618 19.5547 21.2008 21.9719 21.2008 24.943V37.495Z" fill="#008DCC"/>
</g>
<defs>
<clipPath id="clip0_138_1037">
<rect width="40" height="40" fill="white"/>
</clipPath>
</defs>
</svg>
