<svg width="100" height="100" viewBox="0 0 100 100" fill="none" xmlns="http://www.w3.org/2000/svg">
<path d="M4.53628 43.6994H12.9249C13.421 45.4885 14.1357 47.2097 15.0548 48.8228L9.11746 54.7578C8.83394 55.0413 8.67447 55.4258 8.67447 55.8275C8.67447 56.2291 8.83394 56.6136 9.11746 56.8972L15.5321 63.3135C16.1227 63.903 17.0796 63.903 17.6703 63.3135L23.6082 57.375C25.2213 58.2935 26.9407 59.0088 28.7298 59.5043V67.8929C28.7298 68.7281 29.4067 69.405 30.2419 69.405H39.3145C40.1497 69.405 40.8266 68.7281 40.8266 67.8929V59.5043C42.6157 59.0088 44.3351 58.2935 45.9482 57.375L51.8862 63.3135C52.4863 63.8806 53.4249 63.8806 54.0244 63.3135L60.4402 56.8972C60.7237 56.6136 60.8832 56.2291 60.8832 55.8275C60.8832 55.4258 60.7237 55.0413 60.4402 54.7578L54.5016 48.8228C55.4207 47.2097 56.1354 45.4885 56.6316 43.6994H65.0202C65.8554 43.6994 66.5323 43.0225 66.5323 42.1873V33.1147C66.5323 32.2801 65.8554 31.6026 65.0202 31.6026H56.6316C56.1354 29.8141 55.4207 28.0929 54.5016 26.4798L60.439 20.5448C60.7225 20.2613 60.882 19.8768 60.882 19.4751C60.882 19.0735 60.7225 18.6889 60.439 18.4054L54.0244 11.9891C53.4337 11.399 52.4768 11.399 51.8862 11.9891L45.9482 17.9276C44.3351 17.0097 42.6151 16.2944 40.8266 15.7982V7.40905C40.8266 6.57445 40.1497 5.89696 39.3145 5.89696H30.2419C29.4067 5.89696 28.7298 6.57445 28.7298 7.40905V15.7982C26.9413 16.2944 25.2213 17.0097 23.6082 17.9276L17.6703 11.9891C17.0701 11.422 16.1316 11.422 15.5321 11.9891L9.11628 18.4054C8.83276 18.6889 8.67328 19.0735 8.67328 19.4751C8.67328 19.8768 8.83276 20.2613 9.11628 20.5448L15.0548 26.4798C14.1357 28.0929 13.421 29.8141 12.9249 31.6026H4.53628C3.70108 31.6026 3.02419 32.2801 3.02419 33.1147V42.1873C3.02419 43.0225 3.70108 43.6994 4.53628 43.6994ZM6.04838 34.6268H14.108C14.8185 34.6268 15.4334 34.1324 15.5852 33.4384C16.0814 31.1738 16.9786 29.0155 18.2343 27.0663C18.6177 26.4686 18.5326 25.6836 18.03 25.1809L12.3236 19.4745L16.6012 15.1964L22.3064 20.9027C22.809 21.4066 23.5946 21.4916 24.1935 21.1077C26.1433 19.8525 28.301 18.9553 30.5656 18.4586C31.259 18.3062 31.754 17.6913 31.754 16.9807V8.92115H37.8024V16.9807C37.8024 17.6913 38.2974 18.3062 38.9908 18.4586C41.2554 18.9553 43.4131 19.8525 45.3629 21.1077C45.9618 21.4916 46.7474 21.4066 47.2501 20.9027L52.9553 15.1964L57.2317 19.4745L51.5265 25.1791C51.0226 25.6824 50.9382 26.468 51.3221 27.0663C52.5778 29.0167 53.4739 31.1744 53.9694 33.4396C54.1218 34.1336 54.7367 34.6286 55.4467 34.6286H63.5081V40.677H55.4467C54.7367 40.677 54.1218 41.1713 53.9694 41.8654C53.4739 44.13 52.5773 46.2877 51.3221 48.2357C50.9388 48.834 51.0238 49.619 51.5265 50.1217L57.2329 55.8269L52.9553 60.1062L47.2501 54.3992C46.7474 53.896 45.9618 53.8109 45.3629 54.1949C43.4143 55.4506 41.2572 56.3478 38.9926 56.844C38.298 56.9952 37.8024 57.6107 37.8024 58.3212V66.3808H31.754V58.3212C31.754 57.6107 31.2585 56.9952 30.5638 56.844C28.2992 56.3478 26.1421 55.4506 24.1935 54.1949C23.5946 53.8109 22.809 53.896 22.3064 54.3992L16.6012 60.1062L12.3248 55.8281L18.03 50.1228C18.5338 49.6202 18.6183 48.8346 18.2343 48.2357C16.9786 46.2859 16.0814 44.1276 15.5852 41.8624C15.4328 41.1684 14.8185 40.6752 14.108 40.6752H6.04838V34.6268Z" fill="#0987BF"/>
<path d="M34.7782 49.7477C41.4592 49.7477 46.875 44.3325 46.875 37.651C46.875 30.97 41.4592 25.5542 34.7782 25.5542C28.0972 25.5542 22.6815 30.97 22.6815 37.651C22.6885 44.3284 28.1008 49.7407 34.7782 49.7477ZM34.7782 28.5784C39.7882 28.5784 43.8508 32.6409 43.8508 37.651C43.8508 42.6616 39.7882 46.7235 34.7782 46.7235C29.7682 46.7235 25.7056 42.6616 25.7056 37.651C25.711 32.6421 29.7694 28.5837 34.7782 28.5784Z" fill="#0987BF"/>
<path d="M34.7782 54.2841C43.9642 54.2841 51.4113 46.8376 51.4113 37.651C51.4113 28.4651 43.9642 21.018 34.7782 21.018C25.5923 21.018 18.1452 28.4651 18.1452 37.651C18.1564 46.8329 25.5964 54.2735 34.7782 54.2841ZM34.7782 24.0422C42.2944 24.0422 48.3871 30.1349 48.3871 37.651C48.3871 45.1672 42.2944 51.2599 34.7782 51.2599C27.2621 51.2599 21.1694 45.1672 21.1694 37.651C21.1776 30.139 27.2656 24.0504 34.7782 24.0422Z" fill="#0987BF"/>
<path d="M89.2137 75.4534V63.3567C89.2137 62.5221 88.5368 61.8446 87.7016 61.8446H84.6774V49.7478C84.6774 48.9132 84.0005 48.2357 83.1653 48.2357H69.5564C68.7213 48.2357 68.0444 48.9132 68.0444 49.7478V61.8446H60.4839C59.6487 61.8446 58.9718 62.5221 58.9718 63.3567V75.4534H10.5847C6.41105 75.4588 3.0295 78.8403 3.02419 83.0139V86.0381C3.0295 90.2123 6.41105 93.5939 10.5847 93.5986H89.2137C93.3873 93.5939 96.7689 90.2123 96.7742 86.0381V83.0139C96.7689 78.8403 93.3873 75.4588 89.2137 75.4534ZM86.1895 75.4534H75.6048V64.8688H86.1895V75.4534ZM71.0686 51.2599H81.6532V61.8446H71.0686V51.2599ZM61.996 64.8688H72.5806V75.4534H61.996V64.8688ZM93.75 86.0381C93.75 88.5437 91.7187 90.5744 89.2137 90.5744H10.5847C8.07967 90.5744 6.04838 88.5437 6.04838 86.0381V83.0139C6.04838 80.5089 8.07967 78.4776 10.5847 78.4776H89.2137C91.7187 78.4776 93.75 80.5089 93.75 83.0139V86.0381Z" fill="#0987BF"/>
<path d="M49.8992 79.9897C47.3942 79.9897 45.3629 82.021 45.3629 84.526C45.3629 87.0316 47.3942 89.0623 49.8992 89.0623C52.4042 89.0623 54.4355 87.0316 54.4355 84.526C54.4355 82.021 52.4042 79.9897 49.8992 79.9897ZM49.8992 86.0381C49.064 86.0381 48.3871 85.3612 48.3871 84.526C48.3871 83.6914 49.064 83.0139 49.8992 83.0139C50.7344 83.0139 51.4113 83.6914 51.4113 84.526C51.4113 85.3612 50.7344 86.0381 49.8992 86.0381Z" fill="#0987BF"/>
<path d="M34.7782 79.9897C32.2732 79.9897 30.2419 82.021 30.2419 84.526C30.2419 87.0316 32.2732 89.0623 34.7782 89.0623C37.2832 89.0623 39.3145 87.0316 39.3145 84.526C39.3145 82.021 37.2832 79.9897 34.7782 79.9897ZM34.7782 86.0381C33.943 86.0381 33.2661 85.3612 33.2661 84.526C33.2661 83.6914 33.943 83.0139 34.7782 83.0139C35.6134 83.0139 36.2903 83.6914 36.2903 84.526C36.2903 85.3612 35.6134 86.0381 34.7782 86.0381Z" fill="#0987BF"/>
<path d="M65.0202 79.9897C62.5152 79.9897 60.4839 82.021 60.4839 84.526C60.4839 87.0316 62.5152 89.0623 65.0202 89.0623C67.5252 89.0623 69.5565 87.0316 69.5565 84.526C69.5565 82.021 67.5252 79.9897 65.0202 79.9897ZM65.0202 86.0381C64.185 86.0381 63.5081 85.3612 63.5081 84.526C63.5081 83.6914 64.185 83.0139 65.0202 83.0139C65.8554 83.0139 66.5323 83.6914 66.5323 84.526C66.5323 85.3612 65.8554 86.0381 65.0202 86.0381Z" fill="#0987BF"/>
<path d="M19.6572 79.9897C17.1522 79.9897 15.121 82.021 15.121 84.526C15.121 87.0316 17.1522 89.0623 19.6572 89.0623C22.1623 89.0623 24.1935 87.0316 24.1935 84.526C24.1935 82.021 22.1623 79.9897 19.6572 79.9897ZM19.6572 86.0381C18.8221 86.0381 18.1452 85.3612 18.1452 84.526C18.1452 83.6914 18.8221 83.0139 19.6572 83.0139C20.4924 83.0139 21.1693 83.6914 21.1693 84.526C21.1693 85.3612 20.4924 86.0381 19.6572 86.0381Z" fill="#0987BF"/>
<path d="M80.1411 79.9897C77.6361 79.9897 75.6048 82.021 75.6048 84.526C75.6048 87.0316 77.6361 89.0623 80.1411 89.0623C82.6461 89.0623 84.6774 87.0316 84.6774 84.526C84.6774 82.021 82.6461 79.9897 80.1411 79.9897ZM80.1411 86.0381C79.3059 86.0381 78.629 85.3612 78.629 84.526C78.629 83.6914 79.3059 83.0139 80.1411 83.0139C80.9763 83.0139 81.6532 83.6914 81.6532 84.526C81.6532 85.3612 80.9763 86.0381 80.1411 86.0381Z" fill="#0987BF"/>
</svg>
