<svg width="20" height="20" viewBox="0 0 20 20" fill="none" xmlns="http://www.w3.org/2000/svg">
<g clip-path="url(#clip0_2_91)">
<path d="M19.8779 9.70539L13.6279 3.45539C13.4652 3.29262 13.2015 3.29262 13.0387 3.45539C12.876 3.61817 12.876 3.88184 13.0387 4.04457L18.5775 9.58332H0.41668C0.186367 9.58332 0 9.76969 0 10C0 10.2303 0.186367 10.4167 0.41668 10.4167H18.5775L13.0387 15.9554C12.876 16.1182 12.876 16.3818 13.0387 16.5446C13.1201 16.6259 13.2268 16.6666 13.3334 16.6666C13.44 16.6666 13.5466 16.6259 13.628 16.5446L19.878 10.2946C20.0407 10.1318 20.0407 9.86817 19.8779 9.70539Z" fill="black" fill-opacity="0.7"/>
</g>
<defs>
<clipPath id="clip0_2_91">
<rect width="20" height="20" fill="white"/>
</clipPath>
</defs>
</svg>
